<svg width="3212" height="740" viewBox="0 0 3212 740" fill="none" xmlns="http://www.w3.org/2000/svg">
<line x1="740" y1="415" x2="2710" y2="415" stroke="url(#paint0_linear_23_39)" stroke-width="6"/>
<g clip-path="url(#clip0_23_39)">
<path d="M601.25 0H138.75C62.1205 0 0 62.1205 0 138.75V601.25C0 677.88 62.1205 740 138.75 740H601.25C677.88 740 740 677.88 740 601.25V138.75C740 62.1205 677.88 0 601.25 0Z" fill="url(#paint1_linear_23_39)"/>
<path d="M296.631 304.516C294.394 296.739 291.251 289.867 287.203 283.901C283.155 277.829 278.201 272.715 272.342 268.56C266.589 264.299 259.984 261.05 252.526 258.812C245.175 256.575 237.025 255.457 228.077 255.457C211.351 255.457 196.649 259.612 183.972 267.921C171.4 276.231 161.599 288.322 154.568 304.196C147.537 319.963 144.021 339.246 144.021 362.044C144.021 384.842 147.484 404.232 154.408 420.212C161.333 436.192 171.134 448.39 183.812 456.806C196.489 465.116 211.457 469.271 228.716 469.271C244.376 469.271 257.746 466.501 268.826 460.961C280.012 455.315 288.535 447.378 294.394 437.151C300.36 426.923 303.343 414.832 303.343 400.876L317.405 402.953H233.03V350.858H369.98V392.087C369.98 420.851 363.908 445.567 351.763 466.234C339.618 486.795 322.892 502.669 301.585 513.855C280.278 524.935 255.882 530.474 228.396 530.474C197.714 530.474 170.761 523.71 147.537 510.18C124.312 496.543 106.202 477.207 93.2045 452.172C80.3138 427.03 73.8685 397.2 73.8685 362.683C73.8685 336.156 77.7037 312.506 85.3742 291.732C93.1512 270.851 104.018 253.166 117.974 238.678C131.93 224.189 148.176 213.163 166.713 205.599C185.25 198.035 205.332 194.253 226.958 194.253C245.495 194.253 262.753 196.969 278.734 202.403C294.714 207.729 308.883 215.293 321.241 225.094C333.705 234.896 343.879 246.561 351.763 260.091C359.646 273.514 364.707 288.322 366.944 304.516H296.631ZM421.955 526V198.727H551.075C575.791 198.727 596.884 203.148 614.356 211.991C631.934 220.727 645.304 233.138 654.466 249.224C663.734 265.205 668.369 284.008 668.369 305.634C668.369 327.367 663.681 346.064 654.306 361.724C644.931 377.278 631.348 389.21 613.557 397.52C595.872 405.83 574.459 409.984 549.317 409.984H462.864V354.374H538.131C551.341 354.374 562.314 352.562 571.05 348.94C579.786 345.318 586.284 339.885 590.546 332.641C594.913 325.396 597.097 316.394 597.097 305.634C597.097 294.768 594.913 285.606 590.546 278.148C586.284 270.691 579.732 265.045 570.89 261.21C562.154 257.268 551.128 255.297 537.811 255.297H491.149V526H421.955ZM598.695 377.065L680.034 526H603.649L524.068 377.065H598.695Z" fill="white"/>
</g>
<path d="M859.839 297.484C858.895 294.201 857.568 291.299 855.859 288.781C854.149 286.217 852.058 284.058 849.584 282.303C847.155 280.504 844.366 279.132 841.217 278.188C838.114 277.243 834.673 276.771 830.894 276.771C823.832 276.771 817.625 278.525 812.272 282.033C806.964 285.542 802.826 290.647 799.857 297.349C796.888 304.007 795.404 312.148 795.404 321.774C795.404 331.4 796.866 339.587 799.79 346.334C802.714 353.081 806.852 358.231 812.205 361.785C817.557 365.293 823.877 367.048 831.164 367.048C837.776 367.048 843.421 365.878 848.099 363.539C852.822 361.155 856.421 357.804 858.895 353.486C861.414 349.168 862.673 344.062 862.673 338.17L868.611 339.047H832.986V317.051H890.809V334.459C890.809 346.604 888.245 357.039 883.117 365.766C877.989 374.447 870.927 381.149 861.931 385.872C852.935 390.55 842.634 392.889 831.029 392.889C818.075 392.889 806.694 390.033 796.888 384.32C787.083 378.563 779.436 370.399 773.948 359.828C768.505 349.213 765.784 336.618 765.784 322.044C765.784 310.844 767.403 300.858 770.642 292.087C773.926 283.27 778.514 275.804 784.406 269.686C790.299 263.569 797.158 258.913 804.985 255.719C812.812 252.526 821.291 250.929 830.422 250.929C838.249 250.929 845.536 252.076 852.283 254.37C859.03 256.619 865.012 259.813 870.23 263.951C875.493 268.089 879.789 273.015 883.117 278.727C886.446 284.395 888.582 290.647 889.527 297.484H859.839ZM959.04 393.024C948.559 393.024 939.495 390.798 931.849 386.344C924.247 381.846 918.377 375.594 914.238 367.587C910.1 359.536 908.031 350.202 908.031 339.587C908.031 328.881 910.1 319.525 914.238 311.518C918.377 303.467 924.247 297.214 931.849 292.761C939.495 288.263 948.559 286.014 959.04 286.014C969.52 286.014 978.561 288.263 986.163 292.761C993.81 297.214 999.702 303.467 1003.84 311.518C1007.98 319.525 1010.05 328.881 1010.05 339.587C1010.05 350.202 1007.98 359.536 1003.84 367.587C999.702 375.594 993.81 381.846 986.163 386.344C978.561 390.798 969.52 393.024 959.04 393.024ZM959.175 370.759C963.943 370.759 967.923 369.409 971.117 366.71C974.311 363.966 976.717 360.233 978.336 355.51C980.001 350.787 980.833 345.412 980.833 339.384C980.833 333.357 980.001 327.982 978.336 323.259C976.717 318.536 974.311 314.802 971.117 312.058C967.923 309.314 963.943 307.942 959.175 307.942C954.362 307.942 950.313 309.314 947.03 312.058C943.791 314.802 941.34 318.536 939.675 323.259C938.056 327.982 937.246 333.357 937.246 339.384C937.246 345.412 938.056 350.787 939.675 355.51C941.34 360.233 943.791 363.966 947.03 366.71C950.313 369.409 954.362 370.759 959.175 370.759ZM1075.56 393.024C1065.08 393.024 1056.02 390.798 1048.37 386.344C1040.77 381.846 1034.9 375.594 1030.76 367.587C1026.62 359.536 1024.55 350.202 1024.55 339.587C1024.55 328.881 1026.62 319.525 1030.76 311.518C1034.9 303.467 1040.77 297.214 1048.37 292.761C1056.02 288.263 1065.08 286.014 1075.56 286.014C1086.04 286.014 1095.08 288.263 1102.69 292.761C1110.33 297.214 1116.23 303.467 1120.36 311.518C1124.5 319.525 1126.57 328.881 1126.57 339.587C1126.57 350.202 1124.5 359.536 1120.36 367.587C1116.23 375.594 1110.33 381.846 1102.69 386.344C1095.08 390.798 1086.04 393.024 1075.56 393.024ZM1075.7 370.759C1080.47 370.759 1084.45 369.409 1087.64 366.71C1090.83 363.966 1093.24 360.233 1094.86 355.51C1096.52 350.787 1097.36 345.412 1097.36 339.384C1097.36 333.357 1096.52 327.982 1094.86 323.259C1093.24 318.536 1090.83 314.802 1087.64 312.058C1084.45 309.314 1080.47 307.942 1075.7 307.942C1070.89 307.942 1066.84 309.314 1063.55 312.058C1060.31 314.802 1057.86 318.536 1056.2 323.259C1054.58 327.982 1053.77 333.357 1053.77 339.384C1053.77 345.412 1054.58 350.787 1056.2 355.51C1057.86 360.233 1060.31 363.966 1063.55 366.71C1066.84 369.409 1070.89 370.759 1075.7 370.759ZM1191.95 432.023C1182.64 432.023 1174.66 430.741 1168 428.177C1161.39 425.658 1156.12 422.217 1152.21 417.854C1148.3 413.491 1145.76 408.588 1144.59 403.145L1171.17 399.569C1171.98 401.638 1173.26 403.572 1175.02 405.371C1176.77 407.171 1179.09 408.61 1181.97 409.69C1184.89 410.814 1188.44 411.376 1192.63 411.376C1198.88 411.376 1204.03 409.847 1208.08 406.788C1212.17 403.775 1214.22 398.714 1214.22 391.607V372.648H1213C1211.74 375.527 1209.85 378.248 1207.34 380.812C1204.82 383.376 1201.58 385.467 1197.62 387.087C1193.66 388.706 1188.94 389.516 1183.45 389.516C1175.67 389.516 1168.58 387.716 1162.2 384.118C1155.85 380.474 1150.79 374.919 1147.02 367.452C1143.28 359.941 1141.42 350.45 1141.42 338.979C1141.42 327.239 1143.33 317.433 1147.15 309.562C1150.97 301.69 1156.06 295.798 1162.4 291.884C1168.79 287.971 1175.78 286.014 1183.38 286.014C1189.19 286.014 1194.04 287.004 1197.96 288.983C1201.87 290.917 1205.02 293.346 1207.4 296.27C1209.83 299.149 1211.7 301.982 1213 304.771H1214.08V287.364H1242.62V392.012C1242.62 400.828 1240.46 408.205 1236.15 414.143C1231.83 420.08 1225.84 424.533 1218.2 427.502C1210.6 430.516 1201.85 432.023 1191.95 432.023ZM1192.56 367.925C1197.19 367.925 1201.11 366.778 1204.3 364.484C1207.54 362.145 1210.01 358.816 1211.72 354.498C1213.47 350.135 1214.35 344.917 1214.35 338.844C1214.35 332.772 1213.5 327.509 1211.79 323.056C1210.08 318.558 1207.6 315.072 1204.37 312.598C1201.13 310.124 1197.19 308.887 1192.56 308.887C1187.84 308.887 1183.85 310.169 1180.62 312.733C1177.38 315.252 1174.93 318.76 1173.26 323.259C1171.6 327.757 1170.77 332.952 1170.77 338.844C1170.77 344.827 1171.6 350 1173.26 354.363C1174.97 358.681 1177.42 362.032 1180.62 364.416C1183.85 366.755 1187.84 367.925 1192.56 367.925ZM1294.24 252.818V391H1265.5V252.818H1294.24ZM1364.49 393.024C1353.83 393.024 1344.66 390.865 1336.96 386.547C1329.32 382.184 1323.43 376.021 1319.29 368.06C1315.15 360.053 1313.08 350.585 1313.08 339.654C1313.08 328.994 1315.15 319.638 1319.29 311.586C1323.43 303.534 1329.25 297.259 1336.76 292.761C1344.32 288.263 1353.18 286.014 1363.35 286.014C1370.18 286.014 1376.55 287.116 1382.44 289.32C1388.38 291.479 1393.55 294.741 1397.96 299.104C1402.41 303.467 1405.88 308.955 1408.35 315.567C1410.82 322.134 1412.06 329.826 1412.06 338.642V346.536H1324.55V328.724H1385C1385 324.585 1384.1 320.92 1382.31 317.726C1380.51 314.532 1378.01 312.036 1374.82 310.237C1371.67 308.392 1368 307.47 1363.82 307.47C1359.46 307.47 1355.59 308.482 1352.21 310.506C1348.88 312.486 1346.28 315.162 1344.39 318.536C1342.5 321.864 1341.53 325.575 1341.49 329.668V346.604C1341.49 351.732 1342.43 356.162 1344.32 359.896C1346.25 363.629 1348.97 366.508 1352.48 368.532C1355.99 370.556 1360.15 371.568 1364.97 371.568C1368.16 371.568 1371.08 371.118 1373.74 370.219C1376.39 369.319 1378.66 367.97 1380.55 366.17C1382.44 364.371 1383.88 362.167 1384.87 359.558L1411.45 361.312C1410.1 367.7 1407.34 373.277 1403.15 378.045C1399.02 382.768 1393.66 386.457 1387.1 389.111C1380.57 391.72 1373.04 393.024 1364.49 393.024ZM1475.33 391V252.818H1529.85C1540.28 252.818 1549.19 254.685 1556.57 258.418C1563.99 262.107 1569.64 267.347 1573.5 274.139C1577.42 280.886 1579.37 288.826 1579.37 297.957C1579.37 307.133 1577.39 315.027 1573.44 321.639C1569.48 328.206 1563.74 333.244 1556.23 336.753C1548.76 340.261 1539.72 342.016 1529.11 342.016H1492.6V318.536H1524.38C1529.96 318.536 1534.59 317.771 1538.28 316.241C1541.97 314.712 1544.72 312.418 1546.51 309.359C1548.36 306.301 1549.28 302.5 1549.28 297.957C1549.28 293.369 1548.36 289.5 1546.51 286.352C1544.72 283.203 1541.95 280.819 1538.22 279.2C1534.53 277.535 1529.87 276.703 1524.25 276.703H1504.55V391H1475.33ZM1549.96 328.116L1584.3 391H1552.05L1518.45 328.116H1549.96ZM1645.04 393.024C1634.38 393.024 1625.2 390.865 1617.51 386.547C1609.86 382.184 1603.97 376.021 1599.83 368.06C1595.7 360.053 1593.63 350.585 1593.63 339.654C1593.63 328.994 1595.7 319.638 1599.83 311.586C1603.97 303.534 1609.8 297.259 1617.31 292.761C1624.87 288.263 1633.73 286.014 1643.89 286.014C1650.73 286.014 1657.1 287.116 1662.99 289.32C1668.93 291.479 1674.1 294.741 1678.51 299.104C1682.96 303.467 1686.42 308.955 1688.9 315.567C1691.37 322.134 1692.61 329.826 1692.61 338.642V346.536H1605.1V328.724H1665.55C1665.55 324.585 1664.65 320.92 1662.85 317.726C1661.05 314.532 1658.56 312.036 1655.36 310.237C1652.21 308.392 1648.55 307.47 1644.37 307.47C1640 307.47 1636.13 308.482 1632.76 310.506C1629.43 312.486 1626.82 315.162 1624.93 318.536C1623.04 321.864 1622.08 325.575 1622.03 329.668V346.604C1622.03 351.732 1622.98 356.162 1624.87 359.896C1626.8 363.629 1629.52 366.508 1633.03 368.532C1636.54 370.556 1640.7 371.568 1645.51 371.568C1648.71 371.568 1651.63 371.118 1654.28 370.219C1656.94 369.319 1659.21 367.97 1661.1 366.17C1662.99 364.371 1664.43 362.167 1665.42 359.558L1692 361.312C1690.65 367.7 1687.88 373.277 1683.7 378.045C1679.56 382.768 1674.21 386.457 1667.64 389.111C1661.12 391.72 1653.59 393.024 1645.04 393.024ZM1805.2 287.364L1768.97 391H1736.58L1700.35 287.364H1730.71L1752.24 361.515H1753.32L1774.77 287.364H1805.2ZM1863.8 393.024C1853.14 393.024 1843.96 390.865 1836.27 386.547C1828.62 382.184 1822.73 376.021 1818.59 368.06C1814.46 360.053 1812.39 350.585 1812.39 339.654C1812.39 328.994 1814.46 319.638 1818.59 311.586C1822.73 303.534 1828.56 297.259 1836.07 292.761C1843.63 288.263 1852.49 286.014 1862.65 286.014C1869.49 286.014 1875.85 287.116 1881.75 289.32C1887.68 291.479 1892.86 294.741 1897.27 299.104C1901.72 303.467 1905.18 308.955 1907.66 315.567C1910.13 322.134 1911.37 329.826 1911.37 338.642V346.536H1823.86V328.724H1884.31C1884.31 324.585 1883.41 320.92 1881.61 317.726C1879.81 314.532 1877.32 312.036 1874.12 310.237C1870.97 308.392 1867.31 307.47 1863.13 307.47C1858.76 307.47 1854.89 308.482 1851.52 310.506C1848.19 312.486 1845.58 315.162 1843.69 318.536C1841.8 321.864 1840.84 325.575 1840.79 329.668V346.604C1840.79 351.732 1841.74 356.162 1843.63 359.896C1845.56 363.629 1848.28 366.508 1851.79 368.532C1855.3 370.556 1859.46 371.568 1864.27 371.568C1867.47 371.568 1870.39 371.118 1873.04 370.219C1875.7 369.319 1877.97 367.97 1879.86 366.17C1881.75 364.371 1883.19 362.167 1884.18 359.558L1910.76 361.312C1909.41 367.7 1906.64 373.277 1902.46 378.045C1898.32 382.768 1892.97 386.457 1886.4 389.111C1879.88 391.72 1872.35 393.024 1863.8 393.024ZM1930.12 391V287.364H1957.99V305.446H1959.07C1960.96 299.014 1964.13 294.156 1968.58 290.872C1973.04 287.544 1978.16 285.879 1983.97 285.879C1985.41 285.879 1986.96 285.969 1988.62 286.149C1990.29 286.329 1991.75 286.576 1993.01 286.891V312.396C1991.66 311.991 1989.79 311.631 1987.41 311.316C1985.02 311.001 1982.84 310.844 1980.86 310.844C1976.63 310.844 1972.86 311.766 1969.53 313.61C1966.24 315.409 1963.64 317.928 1961.7 321.167C1959.81 324.406 1958.87 328.139 1958.87 332.367V391H1930.12ZM2094.1 316.916L2067.78 318.536C2067.33 316.286 2066.37 314.262 2064.88 312.463C2063.4 310.619 2061.44 309.157 2059.01 308.077C2056.63 306.953 2053.77 306.391 2050.44 306.391C2045.99 306.391 2042.23 307.335 2039.18 309.224C2036.12 311.069 2034.59 313.543 2034.59 316.646C2034.59 319.12 2035.58 321.212 2037.56 322.921C2039.54 324.63 2042.93 326.002 2047.74 327.037L2066.5 330.815C2076.58 332.884 2084.09 336.213 2089.04 340.801C2093.98 345.389 2096.46 351.417 2096.46 358.884C2096.46 365.676 2094.46 371.636 2090.45 376.763C2086.5 381.891 2081.05 385.895 2074.13 388.773C2067.24 391.607 2059.3 393.024 2050.31 393.024C2036.59 393.024 2025.66 390.168 2017.52 384.455C2009.42 378.698 2004.67 370.871 2003.28 360.975L2031.55 359.491C2032.41 363.674 2034.47 366.868 2037.76 369.072C2041.04 371.231 2045.25 372.31 2050.38 372.31C2055.41 372.31 2059.46 371.343 2062.52 369.409C2065.62 367.43 2067.2 364.888 2067.24 361.785C2067.2 359.176 2066.1 357.039 2063.94 355.375C2061.78 353.666 2058.45 352.361 2053.95 351.462L2036 347.886C2025.88 345.862 2018.35 342.353 2013.4 337.36C2008.5 332.367 2006.05 326.002 2006.05 318.266C2006.05 311.608 2007.85 305.873 2011.44 301.06C2015.09 296.247 2020.19 292.536 2026.76 289.928C2033.37 287.319 2041.11 286.014 2049.97 286.014C2063.06 286.014 2073.36 288.781 2080.87 294.313C2088.43 299.846 2092.84 307.38 2094.1 316.916ZM2161.79 393.024C2151.13 393.024 2141.95 390.865 2134.26 386.547C2126.61 382.184 2120.72 376.021 2116.58 368.06C2112.44 360.053 2110.37 350.585 2110.37 339.654C2110.37 328.994 2112.44 319.638 2116.58 311.586C2120.72 303.534 2126.55 297.259 2134.06 292.761C2141.61 288.263 2150.48 286.014 2160.64 286.014C2167.48 286.014 2173.84 287.116 2179.74 289.32C2185.67 291.479 2190.85 294.741 2195.25 299.104C2199.71 303.467 2203.17 308.955 2205.64 315.567C2208.12 322.134 2209.36 329.826 2209.36 338.642V346.536H2121.84V328.724H2182.3C2182.3 324.585 2181.4 320.92 2179.6 317.726C2177.8 314.532 2175.3 312.036 2172.11 310.237C2168.96 308.392 2165.3 307.47 2161.11 307.47C2156.75 307.47 2152.88 308.482 2149.51 310.506C2146.18 312.486 2143.57 315.162 2141.68 318.536C2139.79 321.864 2138.83 325.575 2138.78 329.668V346.604C2138.78 351.732 2139.72 356.162 2141.61 359.896C2143.55 363.629 2146.27 366.508 2149.78 368.532C2153.29 370.556 2157.45 371.568 2162.26 371.568C2165.45 371.568 2168.38 371.118 2171.03 370.219C2173.69 369.319 2175.96 367.97 2177.85 366.17C2179.74 364.371 2181.18 362.167 2182.16 359.558L2208.75 361.312C2207.4 367.7 2204.63 373.277 2200.45 378.045C2196.31 382.768 2190.96 386.457 2184.39 389.111C2177.87 391.72 2170.33 393.024 2161.79 393.024ZM2272.63 391V252.818H2327.14C2337.62 252.818 2346.55 254.82 2353.93 258.823C2361.31 262.781 2366.93 268.292 2370.8 275.354C2374.71 282.371 2376.67 290.467 2376.67 299.643C2376.67 308.82 2374.69 316.916 2370.73 323.933C2366.77 330.95 2361.04 336.415 2353.53 340.329C2346.06 344.242 2337.02 346.199 2326.4 346.199H2291.65V322.786H2321.68C2327.3 322.786 2331.93 321.819 2335.58 319.885C2339.27 317.906 2342.01 315.184 2343.81 311.721C2345.65 308.212 2346.58 304.187 2346.58 299.643C2346.58 295.055 2345.65 291.052 2343.81 287.634C2342.01 284.17 2339.27 281.494 2335.58 279.604C2331.89 277.67 2327.21 276.703 2321.54 276.703H2301.84V391H2272.63ZM2395.1 391V287.364H2422.97V305.446H2424.05C2425.94 299.014 2429.11 294.156 2433.56 290.872C2438.02 287.544 2443.14 285.879 2448.95 285.879C2450.39 285.879 2451.94 285.969 2453.6 286.149C2455.27 286.329 2456.73 286.576 2457.99 286.891V312.396C2456.64 311.991 2454.77 311.631 2452.39 311.316C2450 311.001 2447.82 310.844 2445.84 310.844C2441.62 310.844 2437.84 311.766 2434.51 313.61C2431.22 315.409 2428.62 317.928 2426.68 321.167C2424.79 324.406 2423.85 328.139 2423.85 332.367V391H2395.1ZM2514.85 393.024C2504.37 393.024 2495.31 390.798 2487.66 386.344C2480.06 381.846 2474.19 375.594 2470.05 367.587C2465.91 359.536 2463.84 350.202 2463.84 339.587C2463.84 328.881 2465.91 319.525 2470.05 311.518C2474.19 303.467 2480.06 297.214 2487.66 292.761C2495.31 288.263 2504.37 286.014 2514.85 286.014C2525.33 286.014 2534.37 288.263 2541.97 292.761C2549.62 297.214 2555.51 303.467 2559.65 311.518C2563.79 319.525 2565.86 328.881 2565.86 339.587C2565.86 350.202 2563.79 359.536 2559.65 367.587C2555.51 375.594 2549.62 381.846 2541.97 386.344C2534.37 390.798 2525.33 393.024 2514.85 393.024ZM2514.99 370.759C2519.75 370.759 2523.73 369.409 2526.93 366.71C2530.12 363.966 2532.53 360.233 2534.15 355.51C2535.81 350.787 2536.64 345.412 2536.64 339.384C2536.64 333.357 2535.81 327.982 2534.15 323.259C2532.53 318.536 2530.12 314.802 2526.93 312.058C2523.73 309.314 2519.75 307.942 2514.99 307.942C2510.17 307.942 2506.12 309.314 2502.84 312.058C2499.6 314.802 2497.15 318.536 2495.49 323.259C2493.87 327.982 2493.06 333.357 2493.06 339.384C2493.06 345.412 2493.87 350.787 2495.49 355.51C2497.15 360.233 2499.6 363.966 2502.84 366.71C2506.12 369.409 2510.17 370.759 2514.99 370.759ZM2604.86 287.364L2623.88 323.596L2643.38 287.364H2672.87L2642.84 339.182L2673.68 391H2644.33L2623.88 355.173L2603.78 391H2574.09L2604.86 339.182L2575.17 287.364H2604.86ZM2707.68 429.864C2704.04 429.864 2700.62 429.571 2697.43 428.987C2694.28 428.447 2691.67 427.75 2689.6 426.895L2696.08 405.439C2699.45 406.473 2702.49 407.036 2705.19 407.126C2707.93 407.216 2710.29 406.586 2712.27 405.237C2714.3 403.887 2715.94 401.593 2717.2 398.354L2718.88 393.969L2681.71 287.364H2711.93L2733.39 363.472H2734.47L2756.13 287.364H2786.56L2746.28 402.2C2744.34 407.778 2741.71 412.636 2738.38 416.774C2735.1 420.957 2730.94 424.174 2725.9 426.423C2720.86 428.717 2714.79 429.864 2707.68 429.864Z" fill="white"/>
<path d="M785.134 476H775.248L790.312 432.364H802.201L817.244 476H807.357L796.427 442.335H796.086L785.134 476ZM784.516 458.848H807.869V466.05H784.516V458.848ZM831.402 457.08V476H822.325V443.273H830.976V449.047H831.359C832.084 447.143 833.298 445.638 835.003 444.53C836.707 443.408 838.774 442.847 841.203 442.847C843.476 442.847 845.457 443.344 847.148 444.338C848.838 445.332 850.152 446.753 851.089 448.599C852.027 450.432 852.496 452.619 852.496 455.162V476H843.419V456.781C843.433 454.778 842.922 453.216 841.885 452.094C840.848 450.957 839.42 450.389 837.602 450.389C836.381 450.389 835.301 450.652 834.364 451.178C833.44 451.703 832.716 452.47 832.19 453.479C831.679 454.473 831.416 455.673 831.402 457.08ZM913.806 454.182C913.806 458.94 912.904 462.989 911.1 466.327C909.31 469.665 906.867 472.214 903.771 473.976C900.688 475.723 897.222 476.597 893.373 476.597C889.495 476.597 886.015 475.716 882.933 473.955C879.85 472.193 877.414 469.643 875.624 466.305C873.835 462.967 872.94 458.926 872.94 454.182C872.94 449.423 873.835 445.375 875.624 442.037C877.414 438.699 879.85 436.156 882.933 434.409C886.015 432.648 889.495 431.767 893.373 431.767C897.222 431.767 900.688 432.648 903.771 434.409C906.867 436.156 909.31 438.699 911.1 442.037C912.904 445.375 913.806 449.423 913.806 454.182ZM904.452 454.182C904.452 451.099 903.991 448.5 903.067 446.384C902.158 444.267 900.873 442.662 899.211 441.568C897.549 440.474 895.603 439.928 893.373 439.928C891.143 439.928 889.197 440.474 887.535 441.568C885.873 442.662 884.58 444.267 883.657 446.384C882.748 448.5 882.293 451.099 882.293 454.182C882.293 457.264 882.748 459.864 883.657 461.98C884.58 464.097 885.873 465.702 887.535 466.795C889.197 467.889 891.143 468.436 893.373 468.436C895.603 468.436 897.549 467.889 899.211 466.795C900.873 465.702 902.158 464.097 903.067 461.98C903.991 459.864 904.452 457.264 904.452 454.182ZM920.47 488.273V443.273H929.419V448.77H929.824C930.221 447.889 930.797 446.994 931.549 446.085C932.316 445.162 933.311 444.395 934.532 443.784C935.768 443.159 937.302 442.847 939.135 442.847C941.521 442.847 943.723 443.472 945.74 444.722C947.757 445.957 949.369 447.825 950.576 450.325C951.784 452.811 952.387 455.929 952.387 459.679C952.387 463.33 951.798 466.412 950.619 468.926C949.454 471.426 947.863 473.322 945.846 474.615C943.843 475.893 941.599 476.533 939.113 476.533C937.352 476.533 935.853 476.241 934.618 475.659C933.396 475.077 932.395 474.345 931.613 473.464C930.832 472.57 930.235 471.668 929.824 470.759H929.547V488.273H920.47ZM929.355 459.636C929.355 461.582 929.625 463.28 930.164 464.729C930.704 466.178 931.485 467.307 932.508 468.116C933.531 468.912 934.774 469.31 936.237 469.31C937.714 469.31 938.964 468.905 939.987 468.095C941.01 467.271 941.784 466.135 942.309 464.686C942.849 463.223 943.119 461.54 943.119 459.636C943.119 457.747 942.856 456.085 942.331 454.651C941.805 453.216 941.031 452.094 940.008 451.284C938.985 450.474 937.728 450.07 936.237 450.07C934.76 450.07 933.51 450.46 932.487 451.241C931.478 452.023 930.704 453.131 930.164 454.565C929.625 456 929.355 457.69 929.355 459.636ZM973.353 476.639C969.987 476.639 967.089 475.957 964.66 474.594C962.245 473.216 960.385 471.27 959.078 468.756C957.771 466.227 957.118 463.237 957.118 459.786C957.118 456.419 957.771 453.464 959.078 450.922C960.385 448.379 962.224 446.398 964.596 444.977C966.983 443.557 969.781 442.847 972.991 442.847C975.15 442.847 977.16 443.195 979.021 443.891C980.896 444.572 982.529 445.602 983.922 446.98C985.328 448.358 986.422 450.091 987.203 452.179C987.984 454.253 988.375 456.682 988.375 459.466V461.959H960.74V456.334H979.831C979.831 455.027 979.547 453.869 978.978 452.861C978.41 451.852 977.622 451.064 976.613 450.496C975.619 449.913 974.461 449.622 973.14 449.622C971.762 449.622 970.541 449.942 969.475 450.581C968.424 451.206 967.6 452.051 967.004 453.116C966.407 454.168 966.102 455.339 966.088 456.632V461.98C966.088 463.599 966.386 464.999 966.983 466.178C967.593 467.357 968.453 468.266 969.561 468.905C970.669 469.544 971.983 469.864 973.502 469.864C974.511 469.864 975.434 469.722 976.272 469.438C977.11 469.153 977.828 468.727 978.424 468.159C979.021 467.591 979.475 466.895 979.788 466.071L988.183 466.625C987.757 468.642 986.883 470.403 985.562 471.909C984.255 473.401 982.565 474.565 980.491 475.403C978.431 476.227 976.052 476.639 973.353 476.639ZM1003.37 457.08V476H994.298V443.273H1002.95V449.047H1003.33C1004.06 447.143 1005.27 445.638 1006.98 444.53C1008.68 443.408 1010.75 442.847 1013.18 442.847C1015.45 442.847 1017.43 443.344 1019.12 444.338C1020.81 445.332 1022.12 446.753 1023.06 448.599C1024 450.432 1024.47 452.619 1024.47 455.162V476H1015.39V456.781C1015.41 454.778 1014.89 453.216 1013.86 452.094C1012.82 450.957 1011.39 450.389 1009.57 450.389C1008.35 450.389 1007.27 450.652 1006.34 451.178C1005.41 451.703 1004.69 452.47 1004.16 453.479C1003.65 454.473 1003.39 455.673 1003.37 457.08ZM1053.2 476H1043.31L1058.38 432.364H1070.27L1085.31 476H1075.42L1064.49 442.335H1064.15L1053.2 476ZM1052.58 458.848H1075.94V466.05H1052.58V458.848ZM1099.79 432.364V476H1090.56V432.364H1099.79ZM1159.77 447.641H1150.43C1150.26 446.433 1149.92 445.361 1149.39 444.423C1148.86 443.472 1148.19 442.662 1147.37 441.994C1146.54 441.327 1145.59 440.815 1144.51 440.46C1143.45 440.105 1142.29 439.928 1141.04 439.928C1138.78 439.928 1136.81 440.489 1135.14 441.611C1133.46 442.719 1132.16 444.338 1131.24 446.469C1130.31 448.585 1129.85 451.156 1129.85 454.182C1129.85 457.293 1130.31 459.906 1131.24 462.023C1132.17 464.139 1133.48 465.737 1135.16 466.817C1136.83 467.896 1138.77 468.436 1140.97 468.436C1142.21 468.436 1143.35 468.273 1144.4 467.946C1145.47 467.619 1146.41 467.143 1147.24 466.518C1148.06 465.879 1148.74 465.105 1149.28 464.196C1149.84 463.287 1150.22 462.25 1150.43 461.085L1159.77 461.128C1159.53 463.131 1158.92 465.062 1157.96 466.923C1157 468.77 1155.72 470.425 1154.1 471.888C1152.49 473.337 1150.58 474.487 1148.35 475.339C1146.13 476.178 1143.62 476.597 1140.82 476.597C1136.93 476.597 1133.45 475.716 1130.38 473.955C1127.33 472.193 1124.92 469.643 1123.14 466.305C1121.38 462.967 1120.5 458.926 1120.5 454.182C1120.5 449.423 1121.39 445.375 1123.18 442.037C1124.97 438.699 1127.4 436.156 1130.47 434.409C1133.54 432.648 1136.99 431.767 1140.82 431.767C1143.35 431.767 1145.7 432.122 1147.86 432.832C1150.03 433.543 1151.95 434.58 1153.63 435.943C1155.31 437.293 1156.67 438.947 1157.72 440.908C1158.79 442.868 1159.47 445.112 1159.77 447.641ZM1181 476.639C1177.69 476.639 1174.83 475.936 1172.41 474.53C1170.01 473.109 1168.16 471.135 1166.85 468.607C1165.54 466.064 1164.89 463.116 1164.89 459.764C1164.89 456.384 1165.54 453.429 1166.85 450.901C1168.16 448.358 1170.01 446.384 1172.41 444.977C1174.83 443.557 1177.69 442.847 1181 442.847C1184.31 442.847 1187.16 443.557 1189.56 444.977C1191.98 446.384 1193.84 448.358 1195.15 450.901C1196.45 453.429 1197.11 456.384 1197.11 459.764C1197.11 463.116 1196.45 466.064 1195.15 468.607C1193.84 471.135 1191.98 473.109 1189.56 474.53C1187.16 475.936 1184.31 476.639 1181 476.639ZM1181.04 469.608C1182.55 469.608 1183.8 469.182 1184.81 468.33C1185.82 467.463 1186.58 466.284 1187.09 464.793C1187.62 463.301 1187.88 461.604 1187.88 459.7C1187.88 457.797 1187.62 456.099 1187.09 454.608C1186.58 453.116 1185.82 451.937 1184.81 451.071C1183.8 450.205 1182.55 449.771 1181.04 449.771C1179.52 449.771 1178.24 450.205 1177.21 451.071C1176.18 451.937 1175.41 453.116 1174.88 454.608C1174.37 456.099 1174.12 457.797 1174.12 459.7C1174.12 461.604 1174.37 463.301 1174.88 464.793C1175.41 466.284 1176.18 467.463 1177.21 468.33C1178.24 469.182 1179.52 469.608 1181.04 469.608ZM1203.01 476V443.273H1211.66V449.047H1212.04C1212.72 447.129 1213.86 445.616 1215.45 444.509C1217.04 443.401 1218.95 442.847 1221.16 442.847C1223.41 442.847 1225.32 443.408 1226.89 444.53C1228.47 445.638 1229.52 447.143 1230.05 449.047H1230.39C1231.06 447.172 1232.26 445.673 1234.01 444.551C1235.77 443.415 1237.85 442.847 1240.25 442.847C1243.31 442.847 1245.79 443.82 1247.69 445.766C1249.61 447.697 1250.57 450.439 1250.57 453.99V476H1241.51V455.78C1241.51 453.962 1241.03 452.598 1240.06 451.689C1239.1 450.78 1237.89 450.325 1236.44 450.325C1234.79 450.325 1233.51 450.851 1232.58 451.902C1231.66 452.939 1231.2 454.31 1231.2 456.014V476H1222.4V455.588C1222.4 453.983 1221.94 452.705 1221.01 451.753C1220.1 450.801 1218.9 450.325 1217.41 450.325C1216.4 450.325 1215.49 450.581 1214.69 451.092C1213.89 451.589 1213.26 452.293 1212.79 453.202C1212.32 454.097 1212.09 455.148 1212.09 456.355V476H1203.01ZM1257.74 488.273V443.273H1266.68V448.77H1267.09C1267.49 447.889 1268.06 446.994 1268.81 446.085C1269.58 445.162 1270.58 444.395 1271.8 443.784C1273.03 443.159 1274.57 442.847 1276.4 442.847C1278.79 442.847 1280.99 443.472 1283.01 444.722C1285.02 445.957 1286.63 447.825 1287.84 450.325C1289.05 452.811 1289.65 455.929 1289.65 459.679C1289.65 463.33 1289.06 466.412 1287.88 468.926C1286.72 471.426 1285.13 473.322 1283.11 474.615C1281.11 475.893 1278.86 476.533 1276.38 476.533C1274.62 476.533 1273.12 476.241 1271.88 475.659C1270.66 475.077 1269.66 474.345 1268.88 473.464C1268.1 472.57 1267.5 471.668 1267.09 470.759H1266.81V488.273H1257.74ZM1266.62 459.636C1266.62 461.582 1266.89 463.28 1267.43 464.729C1267.97 466.178 1268.75 467.307 1269.77 468.116C1270.8 468.912 1272.04 469.31 1273.5 469.31C1274.98 469.31 1276.23 468.905 1277.25 468.095C1278.28 467.271 1279.05 466.135 1279.57 464.686C1280.11 463.223 1280.38 461.54 1280.38 459.636C1280.38 457.747 1280.12 456.085 1279.6 454.651C1279.07 453.216 1278.3 452.094 1277.27 451.284C1276.25 450.474 1274.99 450.07 1273.5 450.07C1272.03 450.07 1270.78 450.46 1269.75 451.241C1268.74 452.023 1267.97 453.131 1267.43 454.565C1266.89 456 1266.62 457.69 1266.62 459.636ZM1305.04 476.618C1302.95 476.618 1301.09 476.256 1299.45 475.531C1297.82 474.793 1296.53 473.706 1295.58 472.271C1294.64 470.822 1294.17 469.018 1294.17 466.859C1294.17 465.041 1294.5 463.514 1295.17 462.278C1295.84 461.043 1296.75 460.048 1297.9 459.295C1299.05 458.543 1300.36 457.974 1301.82 457.591C1303.3 457.207 1304.84 456.938 1306.46 456.781C1308.37 456.582 1309.9 456.398 1311.07 456.227C1312.23 456.043 1313.08 455.773 1313.6 455.418C1314.13 455.062 1314.39 454.537 1314.39 453.841V453.713C1314.39 452.364 1313.96 451.32 1313.11 450.581C1312.27 449.842 1311.08 449.473 1309.53 449.473C1307.9 449.473 1306.6 449.835 1305.63 450.56C1304.67 451.27 1304.03 452.165 1303.72 453.244L1295.32 452.562C1295.75 450.574 1296.58 448.855 1297.83 447.406C1299.08 445.943 1300.7 444.821 1302.67 444.04C1304.66 443.244 1306.96 442.847 1309.57 442.847C1311.39 442.847 1313.13 443.06 1314.8 443.486C1316.47 443.912 1317.96 444.572 1319.25 445.467C1320.56 446.362 1321.58 447.513 1322.34 448.919C1323.09 450.311 1323.47 451.98 1323.47 453.926V476H1314.86V471.462H1314.6C1314.08 472.484 1313.37 473.386 1312.49 474.168C1311.61 474.935 1310.56 475.538 1309.32 475.979C1308.08 476.405 1306.66 476.618 1305.04 476.618ZM1307.64 470.354C1308.97 470.354 1310.15 470.091 1311.17 469.565C1312.2 469.026 1313 468.301 1313.58 467.392C1314.16 466.483 1314.45 465.453 1314.45 464.303V460.83C1314.17 461.014 1313.78 461.185 1313.28 461.341C1312.8 461.483 1312.25 461.618 1311.64 461.746C1311.03 461.859 1310.42 461.966 1309.81 462.065C1309.2 462.151 1308.64 462.229 1308.15 462.3C1307.08 462.456 1306.15 462.705 1305.36 463.045C1304.56 463.386 1303.94 463.848 1303.5 464.43C1303.06 464.999 1302.84 465.709 1302.84 466.561C1302.84 467.797 1303.29 468.741 1304.18 469.395C1305.09 470.034 1306.24 470.354 1307.64 470.354ZM1347.92 443.273V450.091H1328.21V443.273H1347.92ZM1332.68 435.432H1341.76V465.943C1341.76 466.781 1341.89 467.435 1342.14 467.903C1342.4 468.358 1342.75 468.678 1343.21 468.862C1343.68 469.047 1344.22 469.139 1344.83 469.139C1345.25 469.139 1345.68 469.104 1346.11 469.033C1346.53 468.947 1346.86 468.884 1347.09 468.841L1348.51 475.595C1348.06 475.737 1347.42 475.901 1346.6 476.085C1345.77 476.284 1344.77 476.405 1343.59 476.447C1341.4 476.533 1339.49 476.241 1337.84 475.574C1336.2 474.906 1334.93 473.869 1334.02 472.463C1333.12 471.057 1332.67 469.281 1332.68 467.136V435.432ZM1353.83 476V443.273H1362.91V476H1353.83ZM1358.39 439.054C1357.04 439.054 1355.88 438.607 1354.92 437.712C1353.96 436.803 1353.49 435.716 1353.49 434.452C1353.49 433.202 1353.96 432.129 1354.92 431.234C1355.88 430.325 1357.04 429.871 1358.39 429.871C1359.74 429.871 1360.89 430.325 1361.84 431.234C1362.81 432.129 1363.29 433.202 1363.29 434.452C1363.29 435.716 1362.81 436.803 1361.84 437.712C1360.89 438.607 1359.74 439.054 1358.39 439.054ZM1379.51 476.618C1377.42 476.618 1375.56 476.256 1373.93 475.531C1372.29 474.793 1371 473.706 1370.05 472.271C1369.11 470.822 1368.64 469.018 1368.64 466.859C1368.64 465.041 1368.98 463.514 1369.64 462.278C1370.31 461.043 1371.22 460.048 1372.37 459.295C1373.52 458.543 1374.83 457.974 1376.29 457.591C1377.77 457.207 1379.32 456.938 1380.94 456.781C1382.84 456.582 1384.37 456.398 1385.54 456.227C1386.7 456.043 1387.55 455.773 1388.07 455.418C1388.6 455.062 1388.86 454.537 1388.86 453.841V453.713C1388.86 452.364 1388.44 451.32 1387.58 450.581C1386.75 449.842 1385.55 449.473 1384 449.473C1382.37 449.473 1381.07 449.835 1380.11 450.56C1379.14 451.27 1378.5 452.165 1378.19 453.244L1369.79 452.562C1370.22 450.574 1371.06 448.855 1372.31 447.406C1373.56 445.943 1375.17 444.821 1377.14 444.04C1379.13 443.244 1381.43 442.847 1384.05 442.847C1385.87 442.847 1387.61 443.06 1389.27 443.486C1390.94 443.912 1392.43 444.572 1393.72 445.467C1395.03 446.362 1396.06 447.513 1396.81 448.919C1397.56 450.311 1397.94 451.98 1397.94 453.926V476H1389.33V471.462H1389.08C1388.55 472.484 1387.85 473.386 1386.97 474.168C1386.09 474.935 1385.03 475.538 1383.79 475.979C1382.56 476.405 1381.13 476.618 1379.51 476.618ZM1382.11 470.354C1383.44 470.354 1384.62 470.091 1385.65 469.565C1386.67 469.026 1387.47 468.301 1388.05 467.392C1388.64 466.483 1388.93 465.453 1388.93 464.303V460.83C1388.64 461.014 1388.25 461.185 1387.75 461.341C1387.27 461.483 1386.73 461.618 1386.11 461.746C1385.5 461.859 1384.89 461.966 1384.28 462.065C1383.67 462.151 1383.12 462.229 1382.62 462.3C1381.55 462.456 1380.62 462.705 1379.83 463.045C1379.03 463.386 1378.42 463.848 1377.98 464.43C1377.53 464.999 1377.31 465.709 1377.31 466.561C1377.31 467.797 1377.76 468.741 1378.66 469.395C1379.57 470.034 1380.72 470.354 1382.11 470.354ZM1405.15 476V432.364H1414.23V448.77H1414.51C1414.9 447.889 1415.48 446.994 1416.23 446.085C1417 445.162 1417.99 444.395 1419.21 443.784C1420.45 443.159 1421.98 442.847 1423.82 442.847C1426.2 442.847 1428.4 443.472 1430.42 444.722C1432.44 445.957 1434.05 447.825 1435.26 450.325C1436.47 452.811 1437.07 455.929 1437.07 459.679C1437.07 463.33 1436.48 466.412 1435.3 468.926C1434.14 471.426 1432.55 473.322 1430.53 474.615C1428.53 475.893 1426.28 476.533 1423.8 476.533C1422.03 476.533 1420.54 476.241 1419.3 475.659C1418.08 475.077 1417.08 474.345 1416.3 473.464C1415.51 472.57 1414.92 471.668 1414.51 470.759H1414.1V476H1405.15ZM1414.04 459.636C1414.04 461.582 1414.31 463.28 1414.85 464.729C1415.39 466.178 1416.17 467.307 1417.19 468.116C1418.21 468.912 1419.46 469.31 1420.92 469.31C1422.4 469.31 1423.65 468.905 1424.67 468.095C1425.69 467.271 1426.47 466.135 1426.99 464.686C1427.53 463.223 1427.8 461.54 1427.8 459.636C1427.8 457.747 1427.54 456.085 1427.01 454.651C1426.49 453.216 1425.71 452.094 1424.69 451.284C1423.67 450.474 1422.41 450.07 1420.92 450.07C1419.44 450.07 1418.19 450.46 1417.17 451.241C1416.16 452.023 1415.39 453.131 1414.85 454.565C1414.31 456 1414.04 457.69 1414.04 459.636ZM1452.2 432.364V476H1443.13V432.364H1452.2ZM1474.39 476.639C1471.02 476.639 1468.12 475.957 1465.7 474.594C1463.28 473.216 1461.42 471.27 1460.11 468.756C1458.81 466.227 1458.15 463.237 1458.15 459.786C1458.15 456.419 1458.81 453.464 1460.11 450.922C1461.42 448.379 1463.26 446.398 1465.63 444.977C1468.02 443.557 1470.82 442.847 1474.03 442.847C1476.19 442.847 1478.2 443.195 1480.06 443.891C1481.93 444.572 1483.56 445.602 1484.96 446.98C1486.36 448.358 1487.46 450.091 1488.24 452.179C1489.02 454.253 1489.41 456.682 1489.41 459.466V461.959H1461.77V456.334H1480.87C1480.87 455.027 1480.58 453.869 1480.01 452.861C1479.45 451.852 1478.66 451.064 1477.65 450.496C1476.65 449.913 1475.5 449.622 1474.18 449.622C1472.8 449.622 1471.58 449.942 1470.51 450.581C1469.46 451.206 1468.64 452.051 1468.04 453.116C1467.44 454.168 1467.14 455.339 1467.12 456.632V461.98C1467.12 463.599 1467.42 464.999 1468.02 466.178C1468.63 467.357 1469.49 468.266 1470.6 468.905C1471.7 469.544 1473.02 469.864 1474.54 469.864C1475.55 469.864 1476.47 469.722 1477.31 469.438C1478.15 469.153 1478.86 468.727 1479.46 468.159C1480.06 467.591 1480.51 466.895 1480.82 466.071L1489.22 466.625C1488.79 468.642 1487.92 470.403 1486.6 471.909C1485.29 473.401 1483.6 474.565 1481.53 475.403C1479.47 476.227 1477.09 476.639 1474.39 476.639ZM1509.39 476V432.364H1526.61C1529.92 432.364 1532.74 432.996 1535.06 434.26C1537.39 435.51 1539.17 437.25 1540.39 439.48C1541.63 441.696 1542.25 444.253 1542.25 447.151C1542.25 450.048 1541.62 452.605 1540.37 454.821C1539.12 457.037 1537.31 458.763 1534.94 459.999C1532.58 461.234 1529.72 461.852 1526.37 461.852H1515.4V454.459H1524.88C1526.66 454.459 1528.12 454.153 1529.27 453.543C1530.43 452.918 1531.3 452.058 1531.87 450.964C1532.45 449.857 1532.74 448.585 1532.74 447.151C1532.74 445.702 1532.45 444.437 1531.87 443.358C1531.3 442.264 1530.43 441.419 1529.27 440.822C1528.1 440.212 1526.63 439.906 1524.84 439.906H1518.62V476H1509.39ZM1548.07 476V443.273H1556.87V448.983H1557.21C1557.8 446.952 1558.81 445.418 1560.21 444.381C1561.62 443.33 1563.24 442.804 1565.07 442.804C1565.52 442.804 1566.01 442.832 1566.54 442.889C1567.07 442.946 1567.53 443.024 1567.93 443.124V451.178C1567.5 451.05 1566.91 450.936 1566.16 450.837C1565.4 450.737 1564.72 450.688 1564.09 450.688C1562.75 450.688 1561.56 450.979 1560.51 451.561C1559.47 452.129 1558.65 452.925 1558.04 453.947C1557.44 454.97 1557.14 456.149 1557.14 457.484V476H1548.07ZM1585.88 476.639C1582.57 476.639 1579.71 475.936 1577.3 474.53C1574.89 473.109 1573.04 471.135 1571.73 468.607C1570.43 466.064 1569.77 463.116 1569.77 459.764C1569.77 456.384 1570.43 453.429 1571.73 450.901C1573.04 448.358 1574.89 446.384 1577.3 444.977C1579.71 443.557 1582.57 442.847 1585.88 442.847C1589.19 442.847 1592.05 443.557 1594.45 444.977C1596.86 446.384 1598.72 448.358 1600.03 450.901C1601.34 453.429 1601.99 456.384 1601.99 459.764C1601.99 463.116 1601.34 466.064 1600.03 468.607C1598.72 471.135 1596.86 473.109 1594.45 474.53C1592.05 475.936 1589.19 476.639 1585.88 476.639ZM1585.92 469.608C1587.43 469.608 1588.69 469.182 1589.7 468.33C1590.7 467.463 1591.46 466.284 1591.98 464.793C1592.5 463.301 1592.76 461.604 1592.76 459.7C1592.76 457.797 1592.5 456.099 1591.98 454.608C1591.46 453.116 1590.7 451.937 1589.7 451.071C1588.69 450.205 1587.43 449.771 1585.92 449.771C1584.4 449.771 1583.13 450.205 1582.09 451.071C1581.07 451.937 1580.29 453.116 1579.77 454.608C1579.26 456.099 1579 457.797 1579 459.7C1579 461.604 1579.26 463.301 1579.77 464.793C1580.29 466.284 1581.07 467.463 1582.09 468.33C1583.13 469.182 1584.4 469.608 1585.92 469.608ZM1614.31 443.273L1620.31 454.714L1626.47 443.273H1635.78L1626.3 459.636L1636.04 476H1626.77L1620.31 464.686L1613.96 476H1604.59L1614.31 459.636L1604.93 443.273H1614.31ZM1646.78 488.273C1645.63 488.273 1644.55 488.18 1643.54 487.996C1642.54 487.825 1641.72 487.605 1641.07 487.335L1643.11 480.56C1644.18 480.886 1645.14 481.064 1645.99 481.092C1646.85 481.121 1647.6 480.922 1648.23 480.496C1648.86 480.07 1649.38 479.345 1649.78 478.322L1650.31 476.938L1638.57 443.273H1648.12L1654.89 467.307H1655.24L1662.07 443.273H1671.68L1658.96 479.537C1658.35 481.298 1657.52 482.832 1656.47 484.139C1655.43 485.46 1654.12 486.476 1652.53 487.186C1650.94 487.911 1649.02 488.273 1646.78 488.273ZM1714.06 444.913C1713.89 443.195 1713.16 441.859 1711.86 440.908C1710.57 439.956 1708.82 439.48 1706.6 439.48C1705.1 439.48 1703.82 439.693 1702.79 440.119C1701.75 440.531 1700.95 441.107 1700.4 441.845C1699.86 442.584 1699.59 443.422 1699.59 444.359C1699.56 445.141 1699.73 445.822 1700.08 446.405C1700.45 446.987 1700.95 447.491 1701.59 447.918C1702.23 448.33 1702.97 448.692 1703.81 449.004C1704.65 449.303 1705.54 449.558 1706.49 449.771L1710.41 450.709C1712.32 451.135 1714.07 451.703 1715.66 452.413C1717.25 453.124 1718.63 453.997 1719.79 455.034C1720.95 456.071 1721.86 457.293 1722.5 458.699C1723.15 460.105 1723.48 461.717 1723.5 463.536C1723.48 466.206 1722.8 468.521 1721.45 470.482C1720.12 472.428 1718.18 473.94 1715.66 475.02C1713.14 476.085 1710.11 476.618 1706.56 476.618C1703.04 476.618 1699.97 476.078 1697.35 474.999C1694.75 473.919 1692.72 472.321 1691.26 470.205C1689.81 468.074 1689.05 465.439 1688.98 462.3H1697.91C1698.01 463.763 1698.43 464.984 1699.16 465.964C1699.92 466.93 1700.92 467.662 1702.17 468.159C1703.43 468.642 1704.86 468.884 1706.45 468.884C1708.01 468.884 1709.37 468.656 1710.52 468.202C1711.69 467.747 1712.59 467.115 1713.23 466.305C1713.87 465.496 1714.19 464.565 1714.19 463.514C1714.19 462.534 1713.89 461.71 1713.31 461.043C1712.74 460.375 1711.91 459.807 1710.8 459.338C1709.7 458.869 1708.36 458.443 1706.77 458.06L1702.02 456.866C1698.34 455.972 1695.44 454.572 1693.31 452.669C1691.17 450.766 1690.12 448.202 1690.13 444.977C1690.12 442.335 1690.82 440.027 1692.24 438.053C1693.67 436.078 1695.64 434.537 1698.14 433.429C1700.64 432.321 1703.48 431.767 1706.66 431.767C1709.9 431.767 1712.73 432.321 1715.14 433.429C1717.57 434.537 1719.46 436.078 1720.81 438.053C1722.16 440.027 1722.86 442.314 1722.9 444.913H1714.06ZM1744.45 476.639C1741.08 476.639 1738.18 475.957 1735.75 474.594C1733.34 473.216 1731.48 471.27 1730.17 468.756C1728.86 466.227 1728.21 463.237 1728.21 459.786C1728.21 456.419 1728.86 453.464 1730.17 450.922C1731.48 448.379 1733.32 446.398 1735.69 444.977C1738.08 443.557 1740.87 442.847 1744.08 442.847C1746.24 442.847 1748.25 443.195 1750.11 443.891C1751.99 444.572 1753.62 445.602 1755.02 446.98C1756.42 448.358 1757.52 450.091 1758.3 452.179C1759.08 454.253 1759.47 456.682 1759.47 459.466V461.959H1731.83V456.334H1750.92C1750.92 455.027 1750.64 453.869 1750.07 452.861C1749.5 451.852 1748.72 451.064 1747.71 450.496C1746.71 449.913 1745.56 449.622 1744.23 449.622C1742.86 449.622 1741.63 449.942 1740.57 450.581C1739.52 451.206 1738.69 452.051 1738.1 453.116C1737.5 454.168 1737.2 455.339 1737.18 456.632V461.98C1737.18 463.599 1737.48 464.999 1738.08 466.178C1738.69 467.357 1739.55 468.266 1740.65 468.905C1741.76 469.544 1743.08 469.864 1744.6 469.864C1745.6 469.864 1746.53 469.722 1747.37 469.438C1748.2 469.153 1748.92 468.727 1749.52 468.159C1750.11 467.591 1750.57 466.895 1750.88 466.071L1759.28 466.625C1758.85 468.642 1757.98 470.403 1756.66 471.909C1755.35 473.401 1753.66 474.565 1751.58 475.403C1749.53 476.227 1747.15 476.639 1744.45 476.639ZM1765.39 476V443.273H1774.19V448.983H1774.53C1775.13 446.952 1776.13 445.418 1777.54 444.381C1778.94 443.33 1780.56 442.804 1782.39 442.804C1782.85 442.804 1783.34 442.832 1783.86 442.889C1784.39 442.946 1784.85 443.024 1785.25 443.124V451.178C1784.82 451.05 1784.23 450.936 1783.48 450.837C1782.73 450.737 1782.04 450.688 1781.41 450.688C1780.08 450.688 1778.89 450.979 1777.83 451.561C1776.8 452.129 1775.97 452.925 1775.36 453.947C1774.77 454.97 1774.47 456.149 1774.47 457.484V476H1765.39ZM1821.45 443.273L1810.01 476H1799.78L1788.34 443.273H1797.93L1804.72 466.689H1805.06L1811.84 443.273H1821.45ZM1839.95 476.639C1836.59 476.639 1833.69 475.957 1831.26 474.594C1828.85 473.216 1826.99 471.27 1825.68 468.756C1824.37 466.227 1823.72 463.237 1823.72 459.786C1823.72 456.419 1824.37 453.464 1825.68 450.922C1826.99 448.379 1828.83 446.398 1831.2 444.977C1833.58 443.557 1836.38 442.847 1839.59 442.847C1841.75 442.847 1843.76 443.195 1845.62 443.891C1847.5 444.572 1849.13 445.602 1850.52 446.98C1851.93 448.358 1853.02 450.091 1853.8 452.179C1854.59 454.253 1854.98 456.682 1854.98 459.466V461.959H1827.34V456.334H1846.43C1846.43 455.027 1846.15 453.869 1845.58 452.861C1845.01 451.852 1844.22 451.064 1843.21 450.496C1842.22 449.913 1841.06 449.622 1839.74 449.622C1838.36 449.622 1837.14 449.942 1836.08 450.581C1835.03 451.206 1834.2 452.051 1833.61 453.116C1833.01 454.168 1832.7 455.339 1832.69 456.632V461.98C1832.69 463.599 1832.99 464.999 1833.58 466.178C1834.19 467.357 1835.05 468.266 1836.16 468.905C1837.27 469.544 1838.58 469.864 1840.1 469.864C1841.11 469.864 1842.04 469.722 1842.87 469.438C1843.71 469.153 1844.43 468.727 1845.03 468.159C1845.62 467.591 1846.08 466.895 1846.39 466.071L1854.78 466.625C1854.36 468.642 1853.48 470.403 1852.16 471.909C1850.86 473.401 1849.17 474.565 1847.09 475.403C1845.03 476.227 1842.65 476.639 1839.95 476.639ZM1860.9 476V443.273H1869.7V448.983H1870.04C1870.64 446.952 1871.64 445.418 1873.04 444.381C1874.45 443.33 1876.07 442.804 1877.9 442.804C1878.36 442.804 1878.85 442.832 1879.37 442.889C1879.9 442.946 1880.36 443.024 1880.76 443.124V451.178C1880.33 451.05 1879.74 450.936 1878.99 450.837C1878.24 450.737 1877.55 450.688 1876.92 450.688C1875.59 450.688 1874.39 450.979 1873.34 451.561C1872.31 452.129 1871.48 452.925 1870.87 453.947C1870.27 454.97 1869.98 456.149 1869.98 457.484V476H1860.9ZM1916.94 443.273V450.091H1896.74V443.273H1916.94ZM1901.36 476V440.908C1901.36 438.536 1901.82 436.568 1902.75 435.006C1903.68 433.443 1904.96 432.271 1906.58 431.49C1908.2 430.709 1910.04 430.318 1912.1 430.318C1913.49 430.318 1914.76 430.425 1915.91 430.638C1917.08 430.851 1917.94 431.043 1918.51 431.213L1916.89 438.031C1916.54 437.918 1916.1 437.811 1915.57 437.712C1915.06 437.612 1914.54 437.562 1914 437.562C1912.66 437.562 1911.73 437.875 1911.2 438.5C1910.68 439.111 1910.42 439.97 1910.42 441.078V476H1901.36ZM1936.1 476.639C1932.79 476.639 1929.92 475.936 1927.51 474.53C1925.11 473.109 1923.26 471.135 1921.95 468.607C1920.64 466.064 1919.99 463.116 1919.99 459.764C1919.99 456.384 1920.64 453.429 1921.95 450.901C1923.26 448.358 1925.11 446.384 1927.51 444.977C1929.92 443.557 1932.79 442.847 1936.1 442.847C1939.41 442.847 1942.26 443.557 1944.66 444.977C1947.08 446.384 1948.94 448.358 1950.24 450.901C1951.55 453.429 1952.2 456.384 1952.2 459.764C1952.2 463.116 1951.55 466.064 1950.24 468.607C1948.94 471.135 1947.08 473.109 1944.66 474.53C1942.26 475.936 1939.41 476.639 1936.1 476.639ZM1936.14 469.608C1937.64 469.608 1938.9 469.182 1939.91 468.33C1940.92 467.463 1941.68 466.284 1942.19 464.793C1942.72 463.301 1942.98 461.604 1942.98 459.7C1942.98 457.797 1942.72 456.099 1942.19 454.608C1941.68 453.116 1940.92 451.937 1939.91 451.071C1938.9 450.205 1937.64 449.771 1936.14 449.771C1934.62 449.771 1933.34 450.205 1932.3 451.071C1931.28 451.937 1930.51 453.116 1929.98 454.608C1929.47 456.099 1929.21 457.797 1929.21 459.7C1929.21 461.604 1929.47 463.301 1929.98 464.793C1930.51 466.284 1931.28 467.463 1932.3 468.33C1933.34 469.182 1934.62 469.608 1936.14 469.608ZM1958.11 476V443.273H1966.91V448.983H1967.25C1967.84 446.952 1968.85 445.418 1970.25 444.381C1971.66 443.33 1973.28 442.804 1975.11 442.804C1975.56 442.804 1976.05 442.832 1976.58 442.889C1977.11 442.946 1977.57 443.024 1977.96 443.124V451.178C1977.54 451.05 1976.95 450.936 1976.2 450.837C1975.44 450.737 1974.75 450.688 1974.13 450.688C1972.79 450.688 1971.6 450.979 1970.55 451.561C1969.51 452.129 1968.69 452.925 1968.08 453.947C1967.48 454.97 1967.18 456.149 1967.18 457.484V476H1958.11ZM2025.65 446.469C2025.35 445.432 2024.93 444.516 2024.39 443.72C2023.85 442.911 2023.19 442.229 2022.41 441.675C2021.64 441.107 2020.76 440.673 2019.77 440.375C2018.79 440.077 2017.7 439.928 2016.51 439.928C2014.28 439.928 2012.32 440.482 2010.63 441.589C2008.95 442.697 2007.64 444.31 2006.71 446.426C2005.77 448.528 2005.3 451.099 2005.3 454.139C2005.3 457.179 2005.76 459.764 2006.69 461.895C2007.61 464.026 2008.92 465.652 2010.61 466.774C2012.3 467.882 2014.29 468.436 2016.59 468.436C2018.68 468.436 2020.46 468.067 2021.94 467.328C2023.43 466.575 2024.57 465.517 2025.35 464.153C2026.15 462.79 2026.54 461.178 2026.54 459.317L2028.42 459.594H2017.17V452.648H2035.43V458.145C2035.43 461.98 2034.62 465.276 2033 468.031C2031.38 470.773 2029.15 472.889 2026.31 474.381C2023.47 475.858 2020.22 476.597 2016.55 476.597C2012.46 476.597 2008.87 475.695 2005.77 473.891C2002.67 472.072 2000.26 469.494 1998.53 466.156C1996.81 462.804 1995.95 458.827 1995.95 454.224C1995.95 450.687 1996.46 447.534 1997.48 444.764C1998.52 441.98 1999.97 439.622 2001.83 437.69C2003.69 435.759 2005.86 434.288 2008.33 433.28C2010.8 432.271 2013.48 431.767 2016.36 431.767C2018.83 431.767 2021.13 432.129 2023.26 432.854C2025.39 433.564 2027.28 434.572 2028.93 435.879C2030.59 437.186 2031.95 438.741 2033 440.545C2034.05 442.335 2034.73 444.31 2035.02 446.469H2025.65ZM2056.98 476.639C2053.67 476.639 2050.8 475.936 2048.39 474.53C2045.99 473.109 2044.13 471.135 2042.83 468.607C2041.52 466.064 2040.87 463.116 2040.87 459.764C2040.87 456.384 2041.52 453.429 2042.83 450.901C2044.13 448.358 2045.99 446.384 2048.39 444.977C2050.8 443.557 2053.67 442.847 2056.98 442.847C2060.29 442.847 2063.14 443.557 2065.54 444.977C2067.96 446.384 2069.82 448.358 2071.12 450.901C2072.43 453.429 2073.08 456.384 2073.08 459.764C2073.08 463.116 2072.43 466.064 2071.12 468.607C2069.82 471.135 2067.96 473.109 2065.54 474.53C2063.14 475.936 2060.29 476.639 2056.98 476.639ZM2057.02 469.608C2058.52 469.608 2059.78 469.182 2060.79 468.33C2061.8 467.463 2062.56 466.284 2063.07 464.793C2063.59 463.301 2063.86 461.604 2063.86 459.7C2063.86 457.797 2063.59 456.099 2063.07 454.608C2062.56 453.116 2061.8 451.937 2060.79 451.071C2059.78 450.205 2058.52 449.771 2057.02 449.771C2055.5 449.771 2054.22 450.205 2053.18 451.071C2052.16 451.937 2051.39 453.116 2050.86 454.608C2050.35 456.099 2050.09 457.797 2050.09 459.7C2050.09 461.604 2050.35 463.301 2050.86 464.793C2051.39 466.284 2052.16 467.463 2053.18 468.33C2054.22 469.182 2055.5 469.608 2057.02 469.608ZM2093.77 476.639C2090.46 476.639 2087.6 475.936 2085.19 474.53C2082.79 473.109 2080.93 471.135 2079.62 468.607C2078.32 466.064 2077.66 463.116 2077.66 459.764C2077.66 456.384 2078.32 453.429 2079.62 450.901C2080.93 448.358 2082.79 446.384 2085.19 444.977C2087.6 443.557 2090.46 442.847 2093.77 442.847C2097.08 442.847 2099.94 443.557 2102.34 444.977C2104.75 446.384 2106.61 448.358 2107.92 450.901C2109.23 453.429 2109.88 456.384 2109.88 459.764C2109.88 463.116 2109.23 466.064 2107.92 468.607C2106.61 471.135 2104.75 473.109 2102.34 474.53C2099.94 475.936 2097.08 476.639 2093.77 476.639ZM2093.81 469.608C2095.32 469.608 2096.58 469.182 2097.59 468.33C2098.59 467.463 2099.35 466.284 2099.87 464.793C2100.39 463.301 2100.65 461.604 2100.65 459.7C2100.65 457.797 2100.39 456.099 2099.87 454.608C2099.35 453.116 2098.59 451.937 2097.59 451.071C2096.58 450.205 2095.32 449.771 2093.81 449.771C2092.3 449.771 2091.02 450.205 2089.98 451.071C2088.96 451.937 2088.18 453.116 2087.66 454.608C2087.15 456.099 2086.89 457.797 2086.89 459.7C2086.89 461.604 2087.15 463.301 2087.66 464.793C2088.18 466.284 2088.96 467.463 2089.98 468.33C2091.02 469.182 2092.3 469.608 2093.81 469.608ZM2130.53 488.955C2127.59 488.955 2125.06 488.55 2122.96 487.74C2120.87 486.945 2119.21 485.858 2117.98 484.48C2116.74 483.102 2115.94 481.554 2115.57 479.835L2123.96 478.706C2124.22 479.359 2124.62 479.97 2125.18 480.538C2125.73 481.107 2126.46 481.561 2127.37 481.902C2128.3 482.257 2129.42 482.435 2130.74 482.435C2132.71 482.435 2134.34 481.952 2135.62 480.986C2136.91 480.034 2137.56 478.436 2137.56 476.192V470.205H2137.17C2136.78 471.114 2136.18 471.973 2135.38 472.783C2134.59 473.592 2133.57 474.253 2132.32 474.764C2131.07 475.276 2129.57 475.531 2127.84 475.531C2125.38 475.531 2123.15 474.963 2121.13 473.827C2119.13 472.676 2117.53 470.922 2116.34 468.564C2115.16 466.192 2114.57 463.195 2114.57 459.572C2114.57 455.865 2115.17 452.768 2116.38 450.283C2117.59 447.797 2119.19 445.936 2121.19 444.7C2123.21 443.464 2125.42 442.847 2127.82 442.847C2129.65 442.847 2131.19 443.159 2132.42 443.784C2133.66 444.395 2134.65 445.162 2135.41 446.085C2136.17 446.994 2136.76 447.889 2137.17 448.77H2137.52V443.273H2146.53V476.32C2146.53 479.104 2145.85 481.433 2144.48 483.308C2143.12 485.183 2141.23 486.589 2138.81 487.527C2136.41 488.479 2133.65 488.955 2130.53 488.955ZM2130.72 468.713C2132.18 468.713 2133.42 468.351 2134.43 467.626C2135.45 466.888 2136.23 465.837 2136.77 464.473C2137.32 463.095 2137.6 461.447 2137.6 459.53C2137.6 457.612 2137.33 455.95 2136.79 454.544C2136.25 453.124 2135.47 452.023 2134.45 451.241C2133.42 450.46 2132.18 450.07 2130.72 450.07C2129.23 450.07 2127.97 450.474 2126.95 451.284C2125.92 452.08 2125.15 453.187 2124.62 454.608C2124.1 456.028 2123.84 457.669 2123.84 459.53C2123.84 461.419 2124.1 463.053 2124.62 464.43C2125.16 465.794 2125.94 466.852 2126.95 467.605C2127.97 468.344 2129.23 468.713 2130.72 468.713ZM2162.83 432.364V476H2153.75V432.364H2162.83ZM2185.01 476.639C2181.65 476.639 2178.75 475.957 2176.32 474.594C2173.91 473.216 2172.04 471.27 2170.74 468.756C2169.43 466.227 2168.78 463.237 2168.78 459.786C2168.78 456.419 2169.43 453.464 2170.74 450.922C2172.04 448.379 2173.88 446.398 2176.26 444.977C2178.64 443.557 2181.44 442.847 2184.65 442.847C2186.81 442.847 2188.82 443.195 2190.68 443.891C2192.56 444.572 2194.19 445.602 2195.58 446.98C2196.99 448.358 2198.08 450.091 2198.86 452.179C2199.64 454.253 2200.03 456.682 2200.03 459.466V461.959H2172.4V456.334H2191.49C2191.49 455.027 2191.21 453.869 2190.64 452.861C2190.07 451.852 2189.28 451.064 2188.27 450.496C2187.28 449.913 2186.12 449.622 2184.8 449.622C2183.42 449.622 2182.2 449.942 2181.14 450.581C2180.08 451.206 2179.26 452.051 2178.66 453.116C2178.07 454.168 2177.76 455.339 2177.75 456.632V461.98C2177.75 463.599 2178.05 464.999 2178.64 466.178C2179.25 467.357 2180.11 468.266 2181.22 468.905C2182.33 469.544 2183.64 469.864 2185.16 469.864C2186.17 469.864 2187.09 469.722 2187.93 469.438C2188.77 469.153 2189.49 468.727 2190.08 468.159C2190.68 467.591 2191.14 466.895 2191.45 466.071L2199.84 466.625C2199.42 468.642 2198.54 470.403 2197.22 471.909C2195.92 473.401 2194.23 474.565 2192.15 475.403C2190.09 476.227 2187.71 476.639 2185.01 476.639ZM2220.02 476V432.364H2237.23C2240.54 432.364 2243.36 432.996 2245.69 434.26C2248.02 435.51 2249.8 437.25 2251.02 439.48C2252.25 441.696 2252.87 444.253 2252.87 447.151C2252.87 450.048 2252.25 452.605 2251 454.821C2249.75 457.037 2247.93 458.763 2245.56 459.999C2243.2 461.234 2240.35 461.852 2237 461.852H2226.02V454.459H2235.51C2237.28 454.459 2238.74 454.153 2239.89 453.543C2241.06 452.918 2241.93 452.058 2242.49 450.964C2243.08 449.857 2243.37 448.585 2243.37 447.151C2243.37 445.702 2243.08 444.437 2242.49 443.358C2241.93 442.264 2241.06 441.419 2239.89 440.822C2238.73 440.212 2237.25 439.906 2235.46 439.906H2229.24V476H2220.02ZM2258.69 476V443.273H2267.49V448.983H2267.83C2268.43 446.952 2269.43 445.418 2270.84 444.381C2272.24 443.33 2273.86 442.804 2275.7 442.804C2276.15 442.804 2276.64 442.832 2277.17 442.889C2277.69 442.946 2278.15 443.024 2278.55 443.124V451.178C2278.12 451.05 2277.53 450.936 2276.78 450.837C2276.03 450.737 2275.34 450.688 2274.72 450.688C2273.38 450.688 2272.19 450.979 2271.14 451.561C2270.1 452.129 2269.27 452.925 2268.66 453.947C2268.07 454.97 2267.77 456.149 2267.77 457.484V476H2258.69ZM2296.51 476.639C2293.2 476.639 2290.33 475.936 2287.92 474.53C2285.52 473.109 2283.67 471.135 2282.36 468.607C2281.05 466.064 2280.4 463.116 2280.4 459.764C2280.4 456.384 2281.05 453.429 2282.36 450.901C2283.67 448.358 2285.52 446.384 2287.92 444.977C2290.33 443.557 2293.2 442.847 2296.51 442.847C2299.82 442.847 2302.67 443.557 2305.07 444.977C2307.49 446.384 2309.35 448.358 2310.65 450.901C2311.96 453.429 2312.61 456.384 2312.61 459.764C2312.61 463.116 2311.96 466.064 2310.65 468.607C2309.35 471.135 2307.49 473.109 2305.07 474.53C2302.67 475.936 2299.82 476.639 2296.51 476.639ZM2296.55 469.608C2298.06 469.608 2299.31 469.182 2300.32 468.33C2301.33 467.463 2302.09 466.284 2302.6 464.793C2303.13 463.301 2303.39 461.604 2303.39 459.7C2303.39 457.797 2303.13 456.099 2302.6 454.608C2302.09 453.116 2301.33 451.937 2300.32 451.071C2299.31 450.205 2298.06 449.771 2296.55 449.771C2295.03 449.771 2293.75 450.205 2292.71 451.071C2291.69 451.937 2290.92 453.116 2290.39 454.608C2289.88 456.099 2289.62 457.797 2289.62 459.7C2289.62 461.604 2289.88 463.301 2290.39 464.793C2290.92 466.284 2291.69 467.463 2292.71 468.33C2293.75 469.182 2295.03 469.608 2296.55 469.608ZM2330.58 476.533C2328.09 476.533 2325.84 475.893 2323.82 474.615C2321.82 473.322 2320.23 471.426 2319.05 468.926C2317.88 466.412 2317.3 463.33 2317.3 459.679C2317.3 455.929 2317.91 452.811 2319.11 450.325C2320.32 447.825 2321.93 445.957 2323.93 444.722C2325.95 443.472 2328.15 442.847 2330.56 442.847C2332.39 442.847 2333.91 443.159 2335.14 443.784C2336.37 444.395 2337.37 445.162 2338.12 446.085C2338.89 446.994 2339.47 447.889 2339.87 448.77H2340.14V432.364H2349.2V476H2340.25V470.759H2339.87C2339.44 471.668 2338.84 472.57 2338.06 473.464C2337.29 474.345 2336.29 475.077 2335.05 475.659C2333.83 476.241 2332.34 476.533 2330.58 476.533ZM2333.45 469.31C2334.92 469.31 2336.15 468.912 2337.16 468.116C2338.18 467.307 2338.96 466.178 2339.5 464.729C2340.06 463.28 2340.33 461.582 2340.33 459.636C2340.33 457.69 2340.06 456 2339.53 454.565C2338.99 453.131 2338.2 452.023 2337.18 451.241C2336.16 450.46 2334.92 450.07 2333.45 450.07C2331.96 450.07 2330.7 450.474 2329.68 451.284C2328.66 452.094 2327.88 453.216 2327.36 454.651C2326.83 456.085 2326.57 457.747 2326.57 459.636C2326.57 461.54 2326.83 463.223 2327.36 464.686C2327.9 466.135 2328.67 467.271 2329.68 468.095C2330.7 468.905 2331.96 469.31 2333.45 469.31ZM2377.65 462.065V443.273H2386.73V476H2378.01V470.055H2377.67C2376.93 471.973 2375.7 473.514 2373.98 474.679C2372.28 475.844 2370.2 476.426 2367.74 476.426C2365.55 476.426 2363.63 475.929 2361.97 474.935C2360.3 473.94 2359 472.527 2358.07 470.695C2357.14 468.862 2356.68 466.668 2356.66 464.111V443.273H2365.74V462.491C2365.75 464.423 2366.27 465.95 2367.29 467.072C2368.32 468.195 2369.69 468.756 2371.41 468.756C2372.5 468.756 2373.52 468.507 2374.47 468.01C2375.43 467.499 2376.19 466.746 2376.77 465.751C2377.37 464.757 2377.66 463.528 2377.65 462.065ZM2408.77 476.639C2405.42 476.639 2402.54 475.929 2400.12 474.509C2397.72 473.074 2395.87 471.085 2394.58 468.543C2393.3 466 2392.66 463.074 2392.66 459.764C2392.66 456.412 2393.31 453.472 2394.6 450.943C2395.91 448.401 2397.76 446.419 2400.16 444.999C2402.56 443.564 2405.42 442.847 2408.73 442.847C2411.58 442.847 2414.08 443.365 2416.23 444.402C2418.37 445.439 2420.07 446.895 2421.32 448.77C2422.57 450.645 2423.26 452.847 2423.39 455.375H2414.82C2414.58 453.741 2413.94 452.428 2412.91 451.433C2411.88 450.425 2410.54 449.92 2408.88 449.92C2407.47 449.92 2406.24 450.304 2405.19 451.071C2404.16 451.824 2403.35 452.925 2402.76 454.374C2402.18 455.822 2401.89 457.577 2401.89 459.636C2401.89 461.724 2402.17 463.5 2402.74 464.963C2403.32 466.426 2404.14 467.541 2405.19 468.308C2406.24 469.075 2407.47 469.459 2408.88 469.459C2409.92 469.459 2410.85 469.246 2411.67 468.82C2412.51 468.393 2413.2 467.776 2413.74 466.966C2414.29 466.142 2414.65 465.155 2414.82 464.004H2423.39C2423.25 466.504 2422.56 468.706 2421.34 470.609C2420.14 472.499 2418.47 473.976 2416.34 475.041C2414.21 476.107 2411.68 476.639 2408.77 476.639ZM2446.61 443.273V450.091H2426.9V443.273H2446.61ZM2431.37 435.432H2440.45V465.943C2440.45 466.781 2440.58 467.435 2440.83 467.903C2441.09 468.358 2441.44 468.678 2441.9 468.862C2442.37 469.047 2442.91 469.139 2443.52 469.139C2443.94 469.139 2444.37 469.104 2444.8 469.033C2445.22 468.947 2445.55 468.884 2445.78 468.841L2447.2 475.595C2446.75 475.737 2446.11 475.901 2445.29 476.085C2444.46 476.284 2443.46 476.405 2442.28 476.447C2440.1 476.533 2438.18 476.241 2436.53 475.574C2434.9 474.906 2433.63 473.869 2432.72 472.463C2431.81 471.057 2431.36 469.281 2431.37 467.136V435.432ZM2479.34 452.605L2471.03 453.116C2470.89 452.406 2470.58 451.767 2470.11 451.199C2469.65 450.616 2469.03 450.155 2468.26 449.814C2467.51 449.459 2466.61 449.281 2465.56 449.281C2464.15 449.281 2462.96 449.58 2462 450.176C2461.03 450.759 2460.55 451.54 2460.55 452.52C2460.55 453.301 2460.86 453.962 2461.49 454.501C2462.11 455.041 2463.18 455.474 2464.7 455.801L2470.63 456.994C2473.81 457.648 2476.18 458.699 2477.74 460.148C2479.31 461.597 2480.09 463.5 2480.09 465.858C2480.09 468.003 2479.45 469.885 2478.19 471.504C2476.94 473.124 2475.22 474.388 2473.03 475.297C2470.86 476.192 2468.35 476.639 2465.51 476.639C2461.18 476.639 2457.73 475.737 2455.16 473.933C2452.6 472.115 2451.1 469.643 2450.66 466.518L2459.59 466.05C2459.86 467.371 2460.51 468.379 2461.55 469.075C2462.59 469.757 2463.91 470.098 2465.53 470.098C2467.12 470.098 2468.4 469.793 2469.37 469.182C2470.35 468.557 2470.85 467.754 2470.86 466.774C2470.85 465.95 2470.5 465.276 2469.82 464.75C2469.13 464.21 2468.08 463.798 2466.66 463.514L2461 462.385C2457.8 461.746 2455.42 460.638 2453.86 459.061C2452.31 457.484 2451.54 455.474 2451.54 453.031C2451.54 450.929 2452.1 449.118 2453.24 447.598C2454.39 446.078 2456 444.906 2458.08 444.082C2460.16 443.259 2462.61 442.847 2465.41 442.847C2469.54 442.847 2472.79 443.72 2475.16 445.467C2477.55 447.214 2478.94 449.594 2479.34 452.605Z" fill="white"/>
<defs>
<linearGradient id="paint0_linear_23_39" x1="740" y1="418.5" x2="2710" y2="418.5" gradientUnits="userSpaceOnUse">
<stop stop-color="#4160EE"/>
<stop offset="1" stop-color="#A056F6"/>
</linearGradient>
<linearGradient id="paint1_linear_23_39" x1="0" y1="0" x2="740" y2="740" gradientUnits="userSpaceOnUse">
<stop stop-color="#A855F7"/>
<stop offset="1" stop-color="#2563EB"/>
</linearGradient>
<clipPath id="clip0_23_39">
<rect width="740" height="740" fill="white"/>
</clipPath>
</defs>
</svg>
